HIERARCHY
ROOT mixamorig:Hips
{
	OFFSET -0.000008 104.274872 1.554316
	CHANNELS 6 Xposition Yposition Zposition Xrotation Yrotation Zrotation
	JOINT mixamorig:Spine
	{
		OFFSET -0.000005 10.181595 0.131519
		CHANNELS 6 Xposition Yposition Zposition Xrotation Yrotation Zrotation
		JOINT mixamorig:Spine1
		{
			OFFSET -0.000000 9.893959 -1.470707
			CHANNELS 6 Xposition Yposition Zposition Xrotation Yrotation Zrotation
			JOINT mixamorig:Spine2
			{
				OFFSET -0.000000 9.220757 -1.370641
				CHANNELS 6 Xposition Yposition Zposition Xrotation Yrotation Zrotation
				JOINT mixamorig:Neck
				{
					OFFSET 0.000001 16.740417 -2.049036
					CHANNELS 6 Xposition Yposition Zposition Xrotation Yrotation Zrotation
					JOINT mixamorig:Head
					{
						OFFSET 0.000000 9.617874 1.685006
						CHANNELS 6 Xposition Yposition Zposition Xrotation Yrotation Zrotation
						JOINT mixamorig:HeadTop_End
						{
							OFFSET 0.000002 22.037354 7.501101
							CHANNELS 6 Xposition Yposition Zposition Xrotation Yrotation Zrotation
							End Site
							{
								OFFSET 0.000168 2310.654297 -282.823242
							}
						}
					}
				}
				JOINT mixamorig:RightShoulder
				{
					OFFSET -4.569970 11.014908 -2.160885
					CHANNELS 6 Xposition Yposition Zposition Xrotation Yrotation Zrotation
					JOINT mixamorig:RightArm
					{
						OFFSET -10.592851 -0.524811 -2.232101
						CHANNELS 6 Xposition Yposition Zposition Xrotation Yrotation Zrotation
						JOINT mixamorig:RightForeArm
						{
							OFFSET -27.841511 0.000031 -0.000004
							CHANNELS 6 Xposition Yposition Zposition Xrotation Yrotation Zrotation
							JOINT mixamorig:RightHand
							{
								OFFSET -28.328831 -0.000015 0.000015
								CHANNELS 6 Xposition Yposition Zposition Xrotation Yrotation Zrotation
								JOINT mixamorig:RightHandThumb1
								{
									OFFSET -2.464806 -1.573990 2.681852
									CHANNELS 6 Xposition Yposition Zposition Xrotation Yrotation Zrotation
									JOINT mixamorig:RightHandThumb2
									{
										OFFSET -3.215179 -1.872803 1.924282
										CHANNELS 6 Xposition Yposition Zposition Xrotation Yrotation Zrotation
										JOINT mixamorig:RightHandThumb3
										{
											OFFSET -2.654831 -1.527969 1.512609
											CHANNELS 6 Xposition Yposition Zposition Xrotation Yrotation Zrotation
											JOINT mixamorig:RightHandThumb4
											{
												OFFSET -2.018814 -1.152008 1.108052
												CHANNELS 6 Xposition Yposition Zposition Xrotation Yrotation Zrotation
												End Site
												{
													OFFSET -188.809540 -114.533607 132.431396
												}
											}
										}
									}
								}
								JOINT mixamorig:RightHandIndex1
								{
									OFFSET -9.108284 -0.517868 2.259835
									CHANNELS 6 Xposition Yposition Zposition Xrotation Yrotation Zrotation
									JOINT mixamorig:RightHandIndex2
									{
										OFFSET -3.699989 0.000000 0.001215
										CHANNELS 6 Xposition Yposition Zposition Xrotation Yrotation Zrotation
										JOINT mixamorig:RightHandIndex3
										{
											OFFSET -2.850006 0.000031 -0.000522
											CHANNELS 6 Xposition Yposition Zposition Xrotation Yrotation Zrotation
											JOINT mixamorig:RightHandIndex4
											{
												OFFSET -2.772186 -0.000015 -0.000020
												CHANNELS 6 Xposition Yposition Zposition Xrotation Yrotation Zrotation
												End Site
												{
													OFFSET -277.218445 0.000000 -0.050231
												}
											}
										}
									}
								}
								JOINT mixamorig:RightHandMiddle1
								{
									OFFSET -9.532516 -0.000031 -0.000023
									CHANNELS 6 Xposition Yposition Zposition Xrotation Yrotation Zrotation
									JOINT mixamorig:RightHandMiddle2
									{
										OFFSET -3.700005 -0.000015 0.003713
										CHANNELS 6 Xposition Yposition Zposition Xrotation Yrotation Zrotation
										JOINT mixamorig:RightHandMiddle3
										{
											OFFSET -2.949974 0.000015 -0.002054
											CHANNELS 6 Xposition Yposition Zposition Xrotation Yrotation Zrotation
											JOINT mixamorig:RightHandMiddle4
											{
												OFFSET -2.946640 0.000000 -0.000156
												CHANNELS 6 Xposition Yposition Zposition Xrotation Yrotation Zrotation
												End Site
												{
													OFFSET -294.664337 0.000000 -0.113670
												}
											}
										}
									}
								}
								JOINT mixamorig:RightHandRing1
								{
									OFFSET -9.103600 -0.043076 -1.865134
									CHANNELS 6 Xposition Yposition Zposition Xrotation Yrotation Zrotation
									JOINT mixamorig:RightHandRing2
									{
										OFFSET -3.379288 0.000000 -0.001055
										CHANNELS 6 Xposition Yposition Zposition Xrotation Yrotation Zrotation
										JOINT mixamorig:RightHandRing3
										{
											OFFSET -2.889687 -0.000015 0.000379
											CHANNELS 6 Xposition Yposition Zposition Xrotation Yrotation Zrotation
											JOINT mixamorig:RightHandRing4
											{
												OFFSET -2.638809 -0.000015 0.000941
												CHANNELS 6 Xposition Yposition Zposition Xrotation Yrotation Zrotation
												End Site
												{
													OFFSET -263.880371 0.000000 0.516020
												}
											}
										}
									}
								}
								JOINT mixamorig:RightHandPinky1
								{
									OFFSET -8.076683 -0.486710 -3.806280
									CHANNELS 6 Xposition Yposition Zposition Xrotation Yrotation Zrotation
									JOINT mixamorig:RightHandPinky2
									{
										OFFSET -3.600014 -0.000015 -0.003747
										CHANNELS 6 Xposition Yposition Zposition Xrotation Yrotation Zrotation
										JOINT mixamorig:RightHandPinky3
										{
											OFFSET -2.099983 0.000000 -0.005739
											CHANNELS 6 Xposition Yposition Zposition Xrotation Yrotation Zrotation
											JOINT mixamorig:RightHandPinky4
											{
												OFFSET -2.115768 -0.000031 -0.003680
												CHANNELS 6 Xposition Yposition Zposition Xrotation Yrotation Zrotation
												End Site
												{
													OFFSET -211.577087 0.000000 -0.350686
												}
											}
										}
									}
								}
							}
						}
					}
				}
				JOINT mixamorig:LeftShoulder
				{
					OFFSET 4.570447 11.014725 -2.160855
					CHANNELS 6 Xposition Yposition Zposition Xrotation Yrotation Zrotation
					JOINT mixamorig:LeftArm
					{
						OFFSET 10.592371 -0.524597 -2.232119
						CHANNELS 6 Xposition Yposition Zposition Xrotation Yrotation Zrotation
						JOINT mixamorig:LeftForeArm
						{
							OFFSET 27.841532 -0.000031 0.000026
							CHANNELS 6 Xposition Yposition Zposition Xrotation Yrotation Zrotation
							JOINT mixamorig:LeftHand
							{
								OFFSET 28.328846 -0.000061 0.000022
								CHANNELS 6 Xposition Yposition Zposition Xrotation Yrotation Zrotation
								JOINT mixamorig:LeftHandThumb1
								{
									OFFSET 2.466141 -1.576172 2.681732
									CHANNELS 6 Xposition Yposition Zposition Xrotation Yrotation Zrotation
									JOINT mixamorig:LeftHandThumb2
									{
										OFFSET 3.217812 -1.872070 1.916482
										CHANNELS 6 Xposition Yposition Zposition Xrotation Yrotation Zrotation
										JOINT mixamorig:LeftHandThumb3
										{
											OFFSET 2.656029 -1.528778 1.514513
											CHANNELS 6 Xposition Yposition Zposition Xrotation Yrotation Zrotation
											JOINT mixamorig:LeftHandThumb4
											{
												OFFSET 2.020889 -1.154053 1.115139
												CHANNELS 6 Xposition Yposition Zposition Xrotation Yrotation Zrotation
												End Site
												{
													OFFSET 190.885437 -115.081749 130.048782
												}
											}
										}
									}
								}
								JOINT mixamorig:LeftHandIndex1
								{
									OFFSET 9.109314 -0.518021 2.259871
									CHANNELS 6 Xposition Yposition Zposition Xrotation Yrotation Zrotation
									JOINT mixamorig:LeftHandIndex2
									{
										OFFSET 3.699989 0.000000 -0.000322
										CHANNELS 6 Xposition Yposition Zposition Xrotation Yrotation Zrotation
										JOINT mixamorig:LeftHandIndex3
										{
											OFFSET 2.850006 0.000000 0.000352
											CHANNELS 6 Xposition Yposition Zposition Xrotation Yrotation Zrotation
											JOINT mixamorig:LeftHandIndex4
											{
												OFFSET 2.774864 -0.000031 -0.000027
												CHANNELS 6 Xposition Yposition Zposition Xrotation Yrotation Zrotation
												End Site
												{
													OFFSET 277.486267 0.000000 -0.009857
												}
											}
										}
									}
								}
								JOINT mixamorig:LeftHandMiddle1
								{
									OFFSET 9.533394 0.000061 0.000044
									CHANNELS 6 Xposition Yposition Zposition Xrotation Yrotation Zrotation
									JOINT mixamorig:LeftHandMiddle2
									{
										OFFSET 3.699989 -0.000015 -0.000231
										CHANNELS 6 Xposition Yposition Zposition Xrotation Yrotation Zrotation
										JOINT mixamorig:LeftHandMiddle3
										{
											OFFSET 2.949997 -0.000015 -0.000059
											CHANNELS 6 Xposition Yposition Zposition Xrotation Yrotation Zrotation
											JOINT mixamorig:LeftHandMiddle4
											{
												OFFSET 2.952896 0.000031 0.000063
												CHANNELS 6 Xposition Yposition Zposition Xrotation Yrotation Zrotation
												End Site
												{
													OFFSET 295.289337 0.000000 0.022810
												}
											}
										}
									}
								}
								JOINT mixamorig:LeftHandRing1
								{
									OFFSET 9.104523 -0.042999 -1.865074
									CHANNELS 6 Xposition Yposition Zposition Xrotation Yrotation Zrotation
									JOINT mixamorig:LeftHandRing2
									{
										OFFSET 3.150009 -0.000031 0.000043
										CHANNELS 6 Xposition Yposition Zposition Xrotation Yrotation Zrotation
										JOINT mixamorig:LeftHandRing3
										{
											OFFSET 2.949982 -0.000015 0.000040
											CHANNELS 6 Xposition Yposition Zposition Xrotation Yrotation Zrotation
											JOINT mixamorig:LeftHandRing4
											{
												OFFSET 2.644348 0.000000 0.000057
												CHANNELS 6 Xposition Yposition Zposition Xrotation Yrotation Zrotation
												End Site
												{
													OFFSET 264.434631 0.000000 0.012105
												}
											}
										}
									}
								}
								JOINT mixamorig:LeftHandPinky1
								{
									OFFSET 8.077789 -0.486847 -3.806259
									CHANNELS 6 Xposition Yposition Zposition Xrotation Yrotation Zrotation
									JOINT mixamorig:LeftHandPinky2
									{
										OFFSET 3.599953 0.000031 0.014727
										CHANNELS 6 Xposition Yposition Zposition Xrotation Yrotation Zrotation
										JOINT mixamorig:LeftHandPinky3
										{
											OFFSET 2.100021 0.000015 0.007705
											CHANNELS 6 Xposition Yposition Zposition Xrotation Yrotation Zrotation
											JOINT mixamorig:LeftHandPinky4
											{
												OFFSET 2.125504 0.000031 0.007517
												CHANNELS 6 Xposition Yposition Zposition Xrotation Yrotation Zrotation
												End Site
												{
													OFFSET 212.550781 0.000000 0.625752
												}
											}
										}
									}
								}
							}
						}
					}
				}
			}
		}
	}
	JOINT mixamorig:RightUpLeg
	{
		OFFSET -8.207787 -6.751648 -1.599560
		CHANNELS 6 Xposition Yposition Zposition Xrotation Yrotation Zrotation
		JOINT mixamorig:RightLeg
		{
			OFFSET -0.000002 -44.370117 0.345942
			CHANNELS 6 Xposition Yposition Zposition Xrotation Yrotation Zrotation
			JOINT mixamorig:RightFoot
			{
				OFFSET 0.000003 -44.423679 -3.043532
				CHANNELS 6 Xposition Yposition Zposition Xrotation Yrotation Zrotation
				JOINT mixamorig:RightToeBase
				{
					OFFSET -0.000002 -8.728671 10.710558
					CHANNELS 6 Xposition Yposition Zposition Xrotation Yrotation Zrotation
					JOINT mixamorig:RightToe_End
					{
						OFFSET -0.000001 -0.000679 9.278119
						CHANNELS 6 Xposition Yposition Zposition Xrotation Yrotation Zrotation
						End Site
						{
							OFFSET 0.000000 -0.067690 927.812134
						}
					}
				}
			}
		}
	}
	JOINT mixamorig:LeftUpLeg
	{
		OFFSET 8.207793 -6.751686 -1.599556
		CHANNELS 6 Xposition Yposition Zposition Xrotation Yrotation Zrotation
		JOINT mixamorig:LeftLeg
		{
			OFFSET -0.000004 -44.370014 0.346954
			CHANNELS 6 Xposition Yposition Zposition Xrotation Yrotation Zrotation
			JOINT mixamorig:LeftFoot
			{
				OFFSET -0.000001 -44.423672 -3.044401
				CHANNELS 6 Xposition Yposition Zposition Xrotation Yrotation Zrotation
				JOINT mixamorig:LeftToeBase
				{
					OFFSET -0.000002 -8.728669 10.710558
					CHANNELS 6 Xposition Yposition Zposition Xrotation Yrotation Zrotation
					JOINT mixamorig:LeftToe_End
					{
						OFFSET -0.000003 -0.000679 9.278133
						CHANNELS 6 Xposition Yposition Zposition Xrotation Yrotation Zrotation
						End Site
						{
							OFFSET 0.000000 -0.068021 927.813477
						}
					}
				}
			}
		}
	}
}
MOTION
Frames: 3
Frame Time: 0.033333
0.000006 104.270477 1.554256 0.000010 0.000003 -0.000113 -0.000005 10.181587 0.131522 0.000001 -0.000003 0.000084 -0.000000 9.893967 -1.470711 0.000001 0.000000 -0.000000 -0.000000 9.220802 -1.370642 0.000000 -0.000000 -0.000000 0.000001 16.740433 -2.049030 0.000000 -0.000000 -0.000000 0.000000 9.617859 1.685014 0.000000 0.000000 0.000000 0.000002 22.037384 7.501101 0.000000 -0.000000 0.000000 -4.569968 11.014880 -2.160881 0.000008 0.000001 -0.000038 -10.592763 -0.524824 -2.231725 49.131576 75.935789 -39.265081 -27.841486 0.000041 0.000589 21.658953 102.631454 -26.873075 -28.328829 0.000007 0.000030 -0.000320 -0.000044 0.000007 -2.464957 -1.573810 2.682183 -117.216920 -231.370582 124.897399 -3.215313 -1.872660 1.924602 52.279385 51.397027 314.147174 -2.654995 -1.527869 1.512948 246.807847 127.370392 124.740387 -2.018842 -1.152004 1.108068 -0.000006 -0.000003 0.000002 -9.108401 -0.517891 2.259926 174.738150 157.780730 -178.971788 -3.700091 0.000018 0.001312 -2.262268 22.356572 0.450886 -2.850105 0.000027 -0.000460 -2.527658 17.077457 0.379677 -2.772166 0.000015 -0.000024 -0.000002 -0.000001 -0.000002 -9.532582 -0.000056 0.000037 -0.672432 19.229044 0.095094 -3.700077 0.000016 0.003764 1.744586 17.260699 -0.251508 -2.950058 0.000007 -0.002010 1.041816 13.521988 -0.122736 -2.946630 0.000001 -0.000159 0.000001 -0.000006 -0.000001 -9.103691 -0.043039 -1.865061 1.018884 19.762015 -0.170948 -3.379319 0.000021 -0.001023 3.954109 10.717538 -0.372975 -2.889742 0.000044 0.000396 4.638454 6.589992 -0.271199 -2.638810 -0.000000 0.000944 0.000000 -0.000001 0.000000 -8.076751 -0.486653 -3.806214 3.663293 19.822807 -0.615700 -3.600015 -0.000015 -0.003732 3.710653 6.554329 -0.184477 -2.100004 0.000039 -0.005727 6.206788 3.623243 -0.179294 -2.115775 -0.000071 -0.003679 -0.000000 0.000003 -0.000003 4.570446 11.014691 -2.160851 -0.000018 0.000010 -0.000021 10.592515 -0.524573 -2.232365 55.149287 -73.524008 42.624967 27.841770 -0.000037 -0.000116 215.070499 -78.299260 222.424550 28.328831 -0.000029 0.000021 0.000019 -0.000088 0.000000 2.465919 -1.575855 2.681756 315.670115 212.407586 -254.246142 3.217486 -1.871929 1.916574 -228.615010 0.048828 200.314067 2.656108 -1.528563 1.514470 179.056346 -20.390410 -324.247713 2.020902 -1.154082 1.115137 0.000000 -0.000001 0.000004 9.109066 -0.517908 2.260016 194.611146 -25.010251 600.043156 3.699750 0.000130 -0.000170 17.244708 -152.450492 -296.506271 2.849747 0.000251 0.000507 22.316407 -159.581742 -264.794030 2.774880 -0.000030 -0.000031 -0.000000 -0.000004 -0.000000 9.533131 0.000229 0.000185 194.924419 -19.545208 254.496400 3.699711 0.000200 -0.000094 194.688354 -18.399780 257.021767 2.949749 0.000247 0.000082 197.119437 -15.167053 277.012119 2.952876 -0.000032 0.000069 -0.000002 0.000003 -0.000001 9.104274 -0.042903 -1.864954 190.407615 -17.779288 240.425446 3.149774 0.000423 0.000179 195.790173 -8.591826 303.108086 2.949793 0.000436 0.000180 -161.782142 -7.360965 -43.725266 2.644333 0.000046 0.000058 -0.000004 -0.000001 -0.000000 8.077530 -0.486776 -3.806142 189.008560 -18.212295 593.547537 3.599959 0.000420 0.014846 -162.920461 0.149133 -1.775363 2.099994 0.000380 0.007846 -157.968834 0.890187 2.444111 2.125495 -0.000030 0.007518 -0.000004 -0.000002 0.000000 -8.207786 -6.751667 -1.599560 -0.077001 -0.000003 0.000080 -0.000002 -44.370110 0.345938 0.153719 -0.000000 -0.000000 0.000000 -44.423679 -3.043532 -0.076700 0.000000 -0.000002 -0.000006 -8.728667 10.710559 -0.000009 -0.000000 -0.000000 -0.000001 -0.000679 9.278123 0.000000 -0.000000 -0.000000 8.207792 -6.751710 -1.599556 -0.074518 -0.000003 0.000081 -0.000002 -44.370014 0.346960 0.148822 0.000002 0.000000 -0.000001 -44.423664 -3.044403 -0.074314 0.000000 -0.000002 -0.000004 -8.728671 10.710558 0.000007 -0.000000 -0.000000 0.000000 -0.000680 9.278137 -0.000000 0.000000 -0.000001 
0.000006 104.270477 1.554256 0.000010 0.000003 -0.000113 -0.000005 10.181587 0.131522 0.000001 -0.000003 0.000084 -0.000000 9.893967 -1.470711 0.000001 0.000000 -0.000000 -0.000000 9.220802 -1.370642 0.000000 -0.000000 -0.000000 0.000001 16.740433 -2.049030 0.000000 -0.000000 -0.000000 0.000000 9.617859 1.685014 0.000000 0.000000 0.000000 0.000002 22.037384 7.501101 0.000000 -0.000000 0.000000 -4.569968 11.014880 -2.160881 0.000008 0.000001 -0.000038 -10.592765 -0.524834 -2.231727 58.971006 74.148172 -46.267859 -27.841511 0.000015 0.000562 25.619657 98.391067 -29.510403 -28.328835 0.000006 0.000031 -0.000319 -0.000045 0.000007 -2.464688 -1.573592 2.682146 -58.499860 -198.840522 264.101094 -3.214768 -1.872484 1.924641 -54.165026 186.914069 323.493960 -2.654461 -1.527800 1.513129 315.606267 188.105541 -11.385703 -2.018830 -1.151996 1.108053 -0.000003 0.000002 0.000003 -9.108375 -0.517719 2.260336 324.694735 161.838081 -233.481056 -3.700079 0.000225 0.001631 120.175334 22.244458 -37.688984 -2.850122 0.000332 -0.000201 102.635053 16.950151 -21.083826 -2.772179 -0.000014 -0.000022 -0.000001 0.000000 0.000000 -9.532607 0.000189 0.000407 126.307943 19.718269 -38.186444 -3.700094 0.000304 0.003974 91.723027 18.277960 -18.722573 -2.950063 0.000308 -0.001907 76.016529 11.584972 -9.060277 -2.946608 0.000000 -0.000157 -0.000000 0.000003 -0.000001 -9.103685 -0.042850 -1.864682 127.369668 20.107749 -39.354344 -3.379326 0.000338 -0.000797 93.992460 7.285404 -7.828071 -2.889697 0.000385 0.000531 82.047518 0.467727 -0.442796 -2.638808 -0.000017 0.000935 0.000004 -0.000004 -0.000000 -8.076745 -0.486481 -3.805806 129.742326 20.461088 -41.770182 -3.599993 0.000309 -0.003451 108.821142 2.951012 -3.663739 -2.099958 0.000383 -0.005489 97.551931 -3.803500 4.553782 -2.115769 -0.000028 -0.003696 0.000002 0.000006 -0.000006 4.570446 11.014691 -2.160851 -0.000018 0.000010 -0.000021 10.592528 -0.524564 -2.232381 67.281482 -71.664394 51.327523 27.841778 -0.000027 -0.000124 217.389157 -80.086980 223.863412 28.328840 -0.000015 0.000017 0.000019 -0.000089 -0.000001 2.466006 -1.576148 2.681925 323.185891 161.037242 -376.122562 3.217702 -1.872048 1.916551 -189.642484 29.153115 123.513371 2.655753 -1.528735 1.514666 137.194431 5.760869 -174.736033 2.020876 -1.154098 1.115157 -0.000001 0.000006 0.000006 9.109131 -0.517763 2.260064 219.561513 -21.605261 664.111751 3.699759 0.000244 -0.000133 35.539233 -154.492131 -250.470714 2.849810 0.000303 0.000543 35.688920 -159.317250 -239.091510 2.774887 -0.000046 -0.000034 -0.000000 0.000000 0.000000 9.533278 0.000332 0.000254 225.762150 -17.580868 319.760934 3.699862 0.000301 -0.000022 223.712027 -18.801305 315.144491 2.949894 0.000304 0.000148 223.203834 -15.686329 321.632843 2.952866 -0.000046 0.000071 0.000001 0.000000 -0.000000 9.104385 -0.042744 -1.864859 227.087739 -18.562704 318.880195 3.149882 0.000369 0.000255 226.433612 -13.760157 328.575867 2.949877 0.000351 0.000266 -136.025553 -10.722758 -26.172400 2.644319 0.000030 0.000071 0.000002 0.000000 -0.000000 8.077665 -0.486635 -3.806014 239.087056 -20.387263 684.384900 3.599899 0.000334 0.014982 -122.438190 -8.149638 -15.398602 2.099953 0.000321 0.007939 -123.868049 -5.998489 -11.875219 2.125509 -0.000016 0.007517 0.000001 0.000000 -0.000002 -8.207786 -6.751667 -1.599560 -0.077001 -0.000003 0.000080 -0.000002 -44.370110 0.345938 0.153719 -0.000000 -0.000000 0.000000 -44.423679 -3.043532 -0.076700 0.000000 -0.000002 -0.000006 -8.728667 10.710559 -0.000009 -0.000000 -0.000000 -0.000001 -0.000679 9.278123 0.000000 -0.000000 -0.000000 8.207792 -6.751710 -1.599556 -0.074518 -0.000003 0.000081 -0.000002 -44.370014 0.346960 0.148822 0.000002 0.000000 -0.000001 -44.423664 -3.044403 -0.074314 0.000000 -0.000002 -0.000004 -8.728671 10.710558 0.000007 -0.000000 -0.000000 0.000000 -0.000680 9.278137 -0.000000 0.000000 -0.000001 
0.000006 104.270477 1.554256 0.000010 0.000003 -0.000113 -0.000005 10.181587 0.131522 0.000001 -0.000003 0.000084 -0.000000 9.893967 -1.470711 0.000001 0.000000 -0.000000 -0.000000 9.220802 -1.370642 0.000000 -0.000000 -0.000000 0.000001 16.740433 -2.049030 0.000000 -0.000000 -0.000000 0.000000 9.617859 1.685014 0.000000 0.000000 0.000000 0.000002 22.037384 7.501101 0.000000 -0.000000 0.000000 -4.569968 11.014880 -2.160881 0.000008 0.000001 -0.000038 -10.592765 -0.524835 -2.231728 63.748771 73.729235 -49.997347 -27.841505 0.000017 0.000565 31.181668 98.562819 -35.924616 -28.328829 0.000021 0.000029 -0.000320 -0.000045 0.000007 -2.464637 -1.573594 2.682207 -55.526286 -199.544919 281.284047 -3.214744 -1.872609 1.924719 -44.088875 196.759199 353.745852 -2.654542 -1.528043 1.513195 345.292700 199.273638 53.768502 -2.018823 -1.152020 1.108057 -0.000002 -0.000002 0.000004 -9.108377 -0.517754 2.260342 323.760256 155.755115 -246.695559 -3.700112 0.000216 0.001617 108.375773 29.953631 -40.648833 -2.850119 0.000320 -0.000257 92.213339 21.495935 -22.320848 -2.772157 -0.000012 -0.000006 0.000001 0.000001 0.000001 -9.532612 0.000164 0.000396 122.617195 24.626976 -43.755138 -3.700113 0.000299 0.003952 83.474952 19.490385 -17.330835 -2.950056 0.000289 -0.001916 70.879660 12.869615 -9.173243 -2.946640 0.000014 -0.000153 0.000001 0.000001 -0.000000 -9.103715 -0.042857 -1.864681 124.094729 25.656822 -46.365786 -3.379314 0.000322 -0.000854 86.440695 7.327336 -6.902649 -2.889724 0.000362 0.000522 76.265592 -0.874194 0.654679 -2.638812 0.000015 0.000930 0.000000 0.000003 0.000001 -8.076776 -0.486486 -3.805814 125.485041 25.686480 -47.446817 -3.600003 0.000300 -0.003485 101.280593 4.352349 -4.896253 -2.099969 0.000363 -0.005510 92.481082 -3.523602 3.875854 -2.115770 -0.000054 -0.003666 0.000001 -0.000000 0.000001 4.570446 11.014691 -2.160851 -0.000018 0.000010 -0.000021 10.592538 -0.524546 -2.232385 74.965383 -70.929780 57.293744 27.841763 -0.000019 -0.000127 217.522196 -78.321083 225.278517 28.328829 -0.000028 0.000018 0.000022 -0.000089 0.000001 2.466175 -1.576139 2.681866 353.274842 153.421567 -426.331665 3.217808 -1.872025 1.916535 -168.686548 30.151190 96.025069 2.656006 -1.528788 1.514633 177.178973 18.953869 -254.282042 2.020902 -1.154080 1.115153 0.000002 -0.000002 0.000001 9.109186 -0.517749 2.260085 229.911462 -18.459498 681.514035 3.699869 0.000278 -0.000107 50.046179 -157.552998 -226.071120 2.849883 0.000315 0.000570 51.951874 -160.964363 -217.978220 2.774879 -0.000044 -0.000031 0.000003 0.000000 0.000000 9.533318 0.000348 0.000284 236.658350 -14.646917 333.190998 3.699905 0.000268 -0.000004 236.021066 -16.516946 329.478517 2.949919 0.000257 0.000197 237.626653 -14.345286 334.223969 2.952859 -0.000016 0.000069 -0.000005 0.000000 -0.000000 9.104435 -0.042740 -1.864835 241.669332 -14.638707 335.711338 3.149928 0.000336 0.000284 236.557127 -13.229563 335.668499 2.949912 0.000337 0.000275 -125.793165 -10.943125 -21.203638 2.644325 0.000031 0.000038 0.000000 -0.000000 0.000000 8.077717 -0.486652 -3.806018 254.958176 -16.577754 698.084511 3.599912 0.000271 0.014975 -110.159996 -7.653639 -11.454473 2.099978 0.000274 0.007956 -113.683089 -5.452399 -8.884920 2.125496 -0.000001 0.007515 -0.000000 0.000000 -0.000000 -8.207786 -6.751667 -1.599560 -0.077001 -0.000003 0.000080 -0.000002 -44.370110 0.345938 0.153719 -0.000000 -0.000000 0.000000 -44.423679 -3.043532 -0.076700 0.000000 -0.000002 -0.000006 -8.728667 10.710559 -0.000009 -0.000000 -0.000000 -0.000001 -0.000679 9.278123 0.000000 -0.000000 -0.000000 8.207792 -6.751710 -1.599556 -0.074518 -0.000003 0.000081 -0.000002 -44.370014 0.346960 0.148822 0.000002 0.000000 -0.000001 -44.423664 -3.044403 -0.074314 0.000000 -0.000002 -0.000004 -8.728671 10.710558 0.000007 -0.000000 -0.000000 0.000000 -0.000680 9.278137 -0.000000 0.000000 -0.000001 
